<svg width="36" height="24" viewBox="0 0 36 24" fill="none" xmlns="http://www.w3.org/2000/svg">
<path d="M14.4823 10.9602C15.2074 10.5845 15.7549 10.1677 16.129 9.71865C16.7946 8.90989 17.119 7.84089 17.111 6.51826C17.1032 5.23119 16.7657 4.13285 16.0984 3.21435C14.985 1.71835 13.1114 0.960551 10.4687 0.936553L0 1L0.131394 22.6801L9.89244 22.6209C10.9923 22.6143 12.0106 22.5125 12.9515 22.3112C13.8925 22.1076 14.7054 21.7404 15.3923 21.2071C16.003 20.7433 16.5123 20.1689 16.9157 19.4928C17.5537 18.4708 17.8688 17.3152 17.861 16.0304C17.8535 14.7855 17.5644 13.7269 16.9982 12.8589C16.4254 11.991 15.589 11.3581 14.4823 10.9602ZM4.34134 4.73944L9.05644 4.71087C10.0928 4.70459 10.948 4.81278 11.6198 5.03323C12.3974 5.3553 12.7893 6.0176 12.7954 7.03125C12.8009 7.94042 12.509 8.57797 11.9261 8.9394C11.3389 9.30086 10.5753 9.48555 9.63757 9.49123L4.37034 9.52316L4.34134 4.73944ZM11.8809 18.4652C11.361 18.724 10.6277 18.8552 9.68779 18.8609L4.42712 18.8927L4.39208 13.1109L9.72505 13.0786C10.6541 13.0797 11.3779 13.1998 11.8964 13.43C12.8192 13.8468 13.2818 14.6176 13.2886 15.7491C13.2967 17.0828 12.8289 17.9837 11.8809 18.4652Z" fill="white"/>
<path d="M31.6906 1.8194L22.4072 1.87566L22.4236 4.57428L31.707 4.51802L31.6906 1.8194Z" fill="white"/>
<path d="M34.9804 12.4498C34.7799 11.1951 34.3482 10.0928 33.6807 9.14323C32.9489 8.06729 32.0239 7.2815 30.9013 6.78813C29.783 6.29251 28.526 6.04893 27.1281 6.05963C24.7815 6.07385 22.8799 6.83008 21.4143 8.31725C19.9531 9.80885 19.2298 11.9451 19.2466 14.7237C19.2646 17.6869 20.0904 19.8226 21.7329 21.1265C23.3688 22.4325 25.2527 23.0769 27.3868 23.064C29.97 23.0483 31.9744 22.2559 33.4001 20.6912C34.3122 19.7031 34.8256 18.733 34.9338 17.7831L30.6569 17.809C30.4122 18.2795 30.1274 18.6481 29.8003 18.9168C29.2073 19.4095 28.4332 19.6587 27.4823 19.6644C26.5774 19.6699 25.8093 19.4723 25.1671 19.0738C24.1071 18.4356 23.5481 17.3097 23.4683 15.7029L35.1399 15.6322C35.149 14.2472 35.0988 13.1827 34.9804 12.4498ZM23.5567 12.9348C23.7037 11.8913 24.0712 11.0621 24.6591 10.4472C25.2469 9.83456 26.0821 9.52273 27.1535 9.51401C28.1416 9.50802 28.9694 9.78977 29.6455 10.3614C30.3129 10.9376 30.6927 11.7778 30.7761 12.891L23.5567 12.9348Z" fill="white"/>
</svg>
