<svg width="27" height="27" viewBox="0 0 27 27" fill="none" xmlns="http://www.w3.org/2000/svg">
<g opacity="0.7">
<path d="M12.5125 21.0047C12.6421 21.1344 12.7961 21.2373 12.9655 21.3075C13.135 21.3777 13.3166 21.4138 13.5 21.4138C13.6834 21.4138 13.865 21.3777 14.0345 21.3075C14.2039 21.2373 14.3579 21.1344 14.4875 21.0047L19.7542 15.738C20.0161 15.4761 20.1633 15.1209 20.1633 14.7505C20.1633 14.3801 20.0161 14.0249 19.7542 13.763C19.4923 13.5011 19.1371 13.354 18.7667 13.354C18.3963 13.354 18.0411 13.5011 17.7792 13.763L14.8966 16.6457V1.39655C14.8966 1.02616 14.7494 0.670945 14.4875 0.409041C14.2256 0.147136 13.8704 0 13.5 0C13.1296 0 12.7744 0.147136 12.5125 0.409041C12.2506 0.670945 12.1034 1.02616 12.1034 1.39655V16.6457L9.22079 13.763C8.95889 13.5011 8.60367 13.354 8.23328 13.354C7.8629 13.354 7.50768 13.5011 7.24578 13.763C6.98387 14.0249 6.83674 14.3801 6.83674 14.7505C6.83674 15.1209 6.98387 15.4761 7.24578 15.738L12.5125 21.0047Z" fill="white"/>
<path d="M25.6034 12.1034C25.2331 12.1034 24.8778 12.2506 24.6159 12.5125C24.354 12.7744 24.2069 13.1296 24.2069 13.5V24.2069H2.7931V13.5C2.7931 13.1296 2.64597 12.7744 2.38406 12.5125C2.12216 12.2506 1.76694 12.1034 1.39655 12.1034C1.02616 12.1034 0.670945 12.2506 0.409041 12.5125C0.147136 12.7744 0 13.1296 0 13.5V24.6724C0 25.2897 0.245227 25.8818 0.681734 26.3183C1.11824 26.7548 1.71027 27 2.32759 27H24.6724C25.2897 27 25.8818 26.7548 26.3183 26.3183C26.7548 25.8818 27 25.2897 27 24.6724V13.5C27 13.1296 26.8529 12.7744 26.591 12.5125C26.3291 12.2506 25.9738 12.1034 25.6034 12.1034Z" fill="white"/>
</g>
</svg>
