<svg width="29" height="28" viewBox="0 0 29 28" fill="none" xmlns="http://www.w3.org/2000/svg">
<path d="M15.051 0.137291C7.29212 0.0614798 0.939001 6.24291 0.863753 13.9441C0.803569 20.1037 4.77863 25.3686 10.3466 27.2686C11.0479 27.404 11.3086 26.9759 11.3122 26.6061C11.3155 26.2745 11.3117 25.3977 11.3161 24.2345C7.39943 25.0383 6.60033 22.3185 6.60033 22.3185C5.97842 20.7012 5.0604 20.2633 5.0604 20.2633C3.7918 19.3863 5.16353 19.4171 5.16353 19.4171C6.57311 19.5298 7.30132 20.8756 7.30132 20.8756C8.53471 23.018 10.5766 22.4233 11.3811 22.0735C11.5164 21.1737 11.886 20.5627 12.2917 20.2177C9.17541 19.8348 5.90578 18.6066 5.95798 13.2647C5.97285 11.7421 6.53307 10.5027 7.44198 9.53585C7.29963 9.182 6.83218 7.75893 7.61504 5.84804C7.61504 5.84804 8.79914 5.48458 11.4656 7.31458C12.5893 7.01651 13.7923 6.87374 14.9886 6.88022C16.1813 6.89882 17.3831 7.06335 18.5025 7.38508C21.2024 5.60751 22.3774 5.99402 22.3774 5.99402C23.1246 7.92159 22.6294 9.33352 22.4819 9.68454C23.3735 10.669 23.9042 11.9191 23.8893 13.4416C23.8369 18.7974 20.5406 19.9441 17.407 20.259C17.9069 20.6944 18.3483 21.5495 18.3356 22.8498C18.3174 24.7144 18.2851 26.2176 18.2806 26.6742C18.277 27.0475 18.5257 27.484 19.2402 27.3538C24.8355 25.5611 28.9091 20.3766 28.9693 14.2187C29.0445 6.51752 22.8134 0.213137 15.051 0.137291Z" fill="white"/>
</svg>
