<svg width="29" height="29" viewBox="0 0 29 29" fill="none" xmlns="http://www.w3.org/2000/svg">
<path d="M28.9928 29V28.9988H29V18.363C29 13.16 27.8799 9.15192 21.7971 9.15192C18.873 9.15192 16.9106 10.7566 16.1095 12.2779H16.0249V9.63767H10.2575V28.9988H16.263V19.4119C16.263 16.8877 16.7415 14.4468 19.8674 14.4468C22.9475 14.4468 22.9934 17.3275 22.9934 19.5738V29H28.9928Z" fill="white"/>
<path d="M0.4785 9.63888H6.49117V29H0.4785V9.63888Z" fill="white"/>
<path d="M3.48242 0C1.55996 0 0 1.55996 0 3.48242C0 5.40487 1.55996 6.99746 3.48242 6.99746C5.40487 6.99746 6.96483 5.40487 6.96483 3.48242C6.96362 1.55996 5.40367 0 3.48242 0Z" fill="white"/>
</svg>
