<svg width="30" height="24" viewBox="0 0 30 24" fill="none" xmlns="http://www.w3.org/2000/svg">
<path d="M30 2.83779C28.8976 3.32276 27.7119 3.64634 26.4611 3.79945C27.7327 3.04965 28.7109 1.85379 29.1701 0.441103C27.9802 1.13379 26.6619 1.64276 25.2596 1.9109C24.1397 0.731586 22.5423 0 20.7724 0C17.3727 0 14.6171 2.71283 14.6171 6.05793C14.6171 6.53131 14.6729 6.99228 14.7779 7.44C9.66336 7.1851 5.12707 4.77021 2.09233 1.10566C1.55904 2.0011 1.25906 3.04966 1.25906 4.15614C1.25906 6.25903 2.34314 8.11035 3.99633 9.2011C2.98725 9.17048 2.03733 8.89159 1.20573 8.44469C1.20573 8.4629 1.20573 8.49021 1.20573 8.51586C1.20573 11.4546 3.32806 13.9018 6.14115 14.4588C5.62703 14.5986 5.08374 14.6764 4.52379 14.6764C4.12632 14.6764 3.73886 14.6317 3.36389 14.5647C4.14715 16.9663 6.41946 18.7217 9.11174 18.7738C7.00525 20.3959 4.35214 21.3674 1.46738 21.3674C0.969086 21.3674 0.481627 21.3393 0 21.2814C2.72561 22.9953 5.962 24 9.43588 24C20.7558 24 26.9486 14.7674 26.9486 6.75807C26.9486 6.49572 26.9403 6.23421 26.9278 5.976C28.136 5.12855 29.1776 4.05931 30 2.83779Z" fill="white"/>
</svg>
