<?xml version="1.0" encoding="UTF-8"?>
<svg width="330px" height="42px" viewBox="0 0 330 42" version="1.1" xmlns="http://www.w3.org/2000/svg" xmlns:xlink="http://www.w3.org/1999/xlink">
    <!-- Generator: Sketch 43.1 (39012) - http://www.bohemiancoding.com/sketch -->
    <title>logo</title>
    <desc>Created with Sketch.</desc>
    <defs>
        <polygon id="path-1" points="0 41.16 329.291298 41.16 329.291298 0.5628 0 0.5628"></polygon>
    </defs>
    <g id="Desktop" stroke="none" stroke-width="1" fill="none" fill-rule="evenodd">
        <g id="LP-Rouanet--Desk" transform="translate(-375.000000, -45.000000)">
            <g id="01---saiba-como-apoiar" transform="translate(-1.000000, 0.000000)">
                <g id="logo" transform="translate(376.000000, 45.000000)">
                    <polygon id="Fill-1" fill="#FFFFFF" points="245.763595 1.429008 247.856954 7.587048 247.882145 7.587048 249.862985 1.429008 252.633977 1.429008 252.633977 10.383408 250.790847 10.383408 250.790847 4.037208 250.765656 4.037208 248.572374 10.383408 247.055046 10.383408 244.861763 4.100208 244.836573 4.100208 244.836573 10.383408 242.993443 10.383408 242.993443 1.429008"></polygon>
                    <g id="Group-46" transform="translate(0.000000, 0.277284)">
                        <path d="M262.199191,9.422532 C261.521557,10.012212 260.586137,10.306212 259.390412,10.306212 C258.179573,10.306212 257.241634,10.013892 256.576595,9.428412 C255.912397,8.843772 255.579878,7.940772 255.579878,6.720252 L255.579878,1.151892 L257.548122,1.151892 L257.548122,6.720252 C257.548122,6.962172 257.568275,7.200732 257.611099,7.434252 C257.652244,7.668612 257.739573,7.876092 257.874763,8.055852 C258.008275,8.235612 258.193008,8.381772 258.432321,8.494332 C258.669954,8.606892 258.989878,8.664012 259.390412,8.664012 C260.093237,8.664012 260.576901,8.506932 260.845603,8.193612 C261.112626,7.880292 261.246137,7.388892 261.246137,6.720252 L261.246137,1.151892 L263.214382,1.151892 L263.214382,6.720252 C263.214382,7.932372 262.875985,8.832852 262.199191,9.422532 Z" id="Fill-2" fill="#FFFFFF"></path>
                        <path d="M267.663756,7.898772 C267.772916,8.107932 267.917344,8.276772 268.097038,8.406132 C268.275893,8.536332 268.486656,8.632092 268.730168,8.695092 C268.972,8.757252 269.222229,8.789172 269.481695,8.789172 C269.657191,8.789172 269.845282,8.774052 270.045969,8.745492 C270.246656,8.716092 270.434748,8.659812 270.610244,8.575812 C270.78574,8.492652 270.931847,8.377572 271.048565,8.231412 C271.166122,8.085252 271.224061,7.898772 271.224061,7.672812 C271.224061,7.430052 271.146809,7.233492 270.992305,7.083132 C270.837802,6.932772 270.635435,6.807612 270.384366,6.707652 C270.133298,6.606852 269.849481,6.518652 269.532076,6.443892 C269.214672,6.369132 268.893069,6.285132 268.566427,6.193572 C268.232229,6.109572 267.906427,6.007092 267.589023,5.886132 C267.270779,5.764332 266.986962,5.608092 266.736733,5.415732 C266.485664,5.223372 266.282458,4.983132 266.128794,4.695012 C265.97345,4.406052 265.897038,4.057452 265.897038,3.647532 C265.897038,3.188052 265.994443,2.788212 266.190931,2.449692 C266.38658,2.111172 266.644366,1.828932 266.961771,1.602972 C267.279176,1.377852 267.639405,1.210692 268.039939,1.101492 C268.441313,0.993132 268.841847,0.938532 269.244061,0.938532 C269.710931,0.938532 270.161008,0.990612 270.590931,1.095612 C271.021695,1.199772 271.403756,1.369452 271.738794,1.602972 C272.072153,1.837332 272.337496,2.136372 272.534824,2.500092 C272.730473,2.863812 272.828718,3.304812 272.828718,3.823092 L270.92345,3.823092 C270.906656,3.555972 270.850397,3.333372 270.754672,3.157812 C270.657267,2.982252 270.530473,2.844492 270.371771,2.744532 C270.213069,2.644572 270.030855,2.573172 269.825969,2.531172 C269.621924,2.490012 269.397725,2.469012 269.155893,2.469012 C268.997191,2.469012 268.837649,2.485812 268.679786,2.518572 C268.521084,2.552172 268.376656,2.610972 268.246504,2.694132 C268.117191,2.778132 268.01055,2.882292 267.92658,3.007452 C267.84345,3.133452 267.802305,3.292212 267.802305,3.484572 C267.802305,3.660132 267.835053,3.802092 267.902229,3.910452 C267.968565,4.019652 268.101237,4.119612 268.296885,4.212012 C268.493374,4.303572 268.765435,4.395972 269.112229,4.487532 C269.459023,4.579932 269.912458,4.696692 270.472534,4.838652 C270.639634,4.872252 270.87055,4.932732 271.167802,5.020932 C271.464214,5.108292 271.758947,5.248572 272.052,5.440932 C272.344214,5.633292 272.596962,5.890332 272.810244,6.212052 C273.023527,6.533772 273.130168,6.945372 273.130168,7.446852 C273.130168,7.856772 273.050397,8.237292 272.891695,8.588412 C272.732992,8.939532 272.497038,9.242772 272.183832,9.497292 C271.869786,9.752652 271.481008,9.950892 271.017496,10.092852 C270.553145,10.235652 270.01658,10.306212 269.406122,10.306212 C268.913221,10.306212 268.435435,10.245732 267.971084,10.124772 C267.506733,10.003812 267.097802,9.813132 266.742611,9.554412 C266.38658,9.294852 266.105282,8.964732 265.897038,8.563212 C265.687115,8.161692 265.587191,7.685412 265.595588,7.133532 L267.501695,7.133532 C267.501695,7.434252 267.555435,7.689612 267.663756,7.898772" id="Fill-4" fill="#FFFFFF"></path>
                        <polygon id="Fill-6" fill="#FFFFFF" points="282.243626 1.151724 282.243626 2.807364 277.517824 2.807364 277.517824 4.725924 281.855687 4.725924 281.855687 6.255564 277.517824 6.255564 277.517824 8.450484 282.344389 8.450484 282.344389 10.106124 275.54958 10.106124 275.54958 1.151724"></polygon>
                        <path d="M291.508145,9.422532 C290.830511,10.012212 289.895092,10.306212 288.699366,10.306212 C287.488527,10.306212 286.550588,10.013892 285.88555,9.428412 C285.221351,8.843772 284.888832,7.940772 284.888832,6.720252 L284.888832,1.151892 L286.857076,1.151892 L286.857076,6.720252 C286.857076,6.962172 286.877229,7.200732 286.920053,7.434252 C286.961198,7.668612 287.048527,7.876092 287.183718,8.055852 C287.317229,8.235612 287.501962,8.381772 287.741275,8.494332 C287.978908,8.606892 288.298832,8.664012 288.699366,8.664012 C289.402191,8.664012 289.885855,8.506932 290.154557,8.193612 C290.42158,7.880292 290.555092,7.388892 290.555092,6.720252 L290.555092,1.151892 L292.523336,1.151892 L292.523336,6.720252 C292.523336,7.932372 292.184939,8.832852 291.508145,9.422532" id="Fill-8" fill="#FFFFFF"></path>
                        <path d="M246.716481,23.499084 C247.001137,23.499084 247.276557,23.452884 247.54358,23.361324 C247.811443,23.269764 248.049916,23.116884 248.259,22.903524 C248.467244,22.690164 248.634344,22.412964 248.760298,22.069404 C248.885412,21.726684 248.94755,21.309204 248.94755,20.815284 C248.94755,20.364204 248.903885,19.956804 248.816557,19.593084 C248.728389,19.229364 248.584802,18.917724 248.384115,18.658164 C248.183427,18.399444 247.918084,18.200364 247.588084,18.062604 C247.258084,17.924844 246.849992,17.855964 246.365489,17.855964 L244.961519,17.855964 L244.961519,23.499084 L246.716481,23.499084 Z M246.854191,16.200324 C247.431901,16.200324 247.967626,16.292724 248.465565,16.476684 C248.962664,16.660644 249.393427,16.936164 249.757015,17.304084 C250.120603,17.672004 250.40442,18.131484 250.609305,18.683364 C250.814191,19.235244 250.916634,19.882884 250.916634,20.627124 C250.916634,21.278964 250.832664,21.881244 250.665565,22.433124 C250.498466,22.985004 250.245718,23.461284 249.907321,23.862804 C249.568084,24.264324 249.146557,24.580164 248.641061,24.809484 C248.134725,25.039644 247.539382,25.154724 246.854191,25.154724 L242.993275,25.154724 L242.993275,16.200324 L246.854191,16.200324 Z" id="Fill-10" fill="#FFFFFF"></path>
                        <path d="M255.247947,21.812532 C255.335275,22.167852 255.475504,22.487892 255.667794,22.771812 C255.860084,23.055732 256.110313,23.284212 256.42016,23.455572 C256.729168,23.626932 257.105351,23.712612 257.54787,23.712612 C257.991229,23.712612 258.367412,23.626932 258.67642,23.455572 C258.985427,23.284212 259.235656,23.055732 259.428786,22.771812 C259.620237,22.487892 259.760466,22.167852 259.848634,21.812532 C259.935962,21.457212 259.980466,21.091812 259.980466,20.714652 C259.980466,20.322372 259.935962,19.941852 259.848634,19.573932 C259.760466,19.206012 259.620237,18.877572 259.428786,18.589452 C259.235656,18.301332 258.985427,18.071172 258.67642,17.899812 C258.367412,17.728452 257.991229,17.642772 257.54787,17.642772 C257.105351,17.642772 256.729168,17.728452 256.42016,17.899812 C256.110313,18.071172 255.860084,18.301332 255.667794,18.589452 C255.475504,18.877572 255.335275,19.206012 255.247947,19.573932 C255.160618,19.941852 255.116115,20.322372 255.116115,20.714652 C255.116115,21.091812 255.160618,21.457212 255.247947,21.812532 M253.448481,18.853212 C253.649168,18.280332 253.937183,17.780532 254.314206,17.353812 C254.68955,16.927932 255.151382,16.593612 255.698863,16.350852 C256.245504,16.108092 256.862679,15.987132 257.54787,15.987132 C258.241458,15.987132 258.860313,16.108092 259.402756,16.350852 C259.946878,16.593612 260.406191,16.927932 260.782374,17.353812 C261.158557,17.780532 261.446573,18.280332 261.64726,18.853212 C261.847947,19.425252 261.94787,20.046012 261.94787,20.714652 C261.94787,21.367332 261.847947,21.975492 261.64726,22.539972 C261.446573,23.104452 261.158557,23.595852 260.782374,24.013332 C260.406191,24.431652 259.946878,24.759252 259.402756,24.997812 C258.860313,25.236372 258.241458,25.354812 257.54787,25.354812 C256.862679,25.354812 256.245504,25.236372 255.698863,24.997812 C255.151382,24.759252 254.68955,24.431652 254.314206,24.013332 C253.937183,23.595852 253.649168,23.104452 253.448481,22.539972 C253.247794,21.975492 253.14787,21.367332 253.14787,20.714652 C253.14787,20.046012 253.247794,19.425252 253.448481,18.853212" id="Fill-12" fill="#FFFFFF"></path>
                        <path d="M270.992977,21.812532 C271.080305,22.167852 271.220534,22.487892 271.412824,22.771812 C271.605115,23.055732 271.855344,23.284212 272.165191,23.455572 C272.474198,23.626932 272.850382,23.712612 273.292901,23.712612 C273.73626,23.712612 274.112443,23.626932 274.42145,23.455572 C274.730458,23.284212 274.980687,23.055732 275.173817,22.771812 C275.365267,22.487892 275.505496,22.167852 275.593664,21.812532 C275.680992,21.457212 275.725496,21.091812 275.725496,20.714652 C275.725496,20.322372 275.680992,19.941852 275.593664,19.573932 C275.505496,19.206012 275.365267,18.877572 275.173817,18.589452 C274.980687,18.301332 274.730458,18.071172 274.42145,17.899812 C274.112443,17.728452 273.73626,17.642772 273.292901,17.642772 C272.850382,17.642772 272.474198,17.728452 272.165191,17.899812 C271.855344,18.071172 271.605115,18.301332 271.412824,18.589452 C271.220534,18.877572 271.080305,19.206012 270.992977,19.573932 C270.905649,19.941852 270.861145,20.322372 270.861145,20.714652 C270.861145,21.091812 270.905649,21.457212 270.992977,21.812532 M269.193511,18.853212 C269.394198,18.280332 269.682214,17.780532 270.059237,17.353812 C270.43458,16.927932 270.896412,16.593612 271.443893,16.350852 C271.990534,16.108092 272.60771,15.987132 273.292901,15.987132 C273.986489,15.987132 274.605344,16.108092 275.147786,16.350852 C275.691908,16.593612 276.151221,16.927932 276.527405,17.353812 C276.903588,17.780532 277.191603,18.280332 277.39229,18.853212 C277.592977,19.425252 277.692901,20.046012 277.692901,20.714652 C277.692901,21.367332 277.592977,21.975492 277.39229,22.539972 C277.191603,23.104452 276.903588,23.595852 276.527405,24.013332 C276.151221,24.431652 275.691908,24.759252 275.147786,24.997812 C274.605344,25.236372 273.986489,25.354812 273.292901,25.354812 C272.60771,25.354812 271.990534,25.236372 271.443893,24.997812 C270.896412,24.759252 270.43458,24.431652 270.059237,24.013332 C269.682214,23.595852 269.394198,23.104452 269.193511,22.539972 C268.992824,21.975492 268.892901,21.367332 268.892901,20.714652 C268.892901,20.046012 268.992824,19.425252 269.193511,18.853212" id="Fill-14" fill="#FFFFFF"></path>
                        <path d="M284.362511,23.62458 C284.554802,23.62458 284.738695,23.6061 284.914191,23.5683 C285.089687,23.5305 285.244191,23.4675 285.378542,23.38014 C285.512053,23.29194 285.617855,23.17266 285.697626,23.0223 C285.777397,22.87194 285.816863,22.67958 285.816863,22.44606 C285.816863,21.98574 285.68755,21.65814 285.428924,21.46158 C285.169458,21.26502 284.826863,21.16674 284.400298,21.16674 L282.256557,21.16674 L282.256557,23.62458 L284.362511,23.62458 Z M284.249992,19.82526 C284.600985,19.82526 284.889,19.74126 285.114878,19.5741 C285.340756,19.40694 285.453275,19.13478 285.453275,18.7593 C285.453275,18.5493 285.415489,18.37794 285.340756,18.24438 C285.265183,18.11082 285.16526,18.00666 285.040145,17.93106 C284.914191,17.85546 284.769763,17.80338 284.606863,17.77398 C284.444802,17.74458 284.275183,17.7303 284.099687,17.7303 L282.256557,17.7303 L282.256557,19.82526 L284.249992,19.82526 Z M284.500221,16.20066 C284.926786,16.20066 285.315565,16.23846 285.666557,16.31322 C286.01755,16.38882 286.31816,16.5123 286.569229,16.68282 C286.820298,16.85418 287.014267,17.08266 287.151977,17.36658 C287.289687,17.65134 287.358542,18.00246 287.358542,18.41994 C287.358542,18.87186 287.256099,19.24818 287.052053,19.5489 C286.847168,19.84962 286.544038,20.09658 286.142664,20.28894 C286.694344,20.4477 287.106634,20.72574 287.377855,21.12222 C287.649076,21.51954 287.785107,21.99834 287.785107,22.55862 C287.785107,23.01054 287.697779,23.40114 287.522282,23.73126 C287.346786,24.06138 287.109992,24.33102 286.81358,24.54018 C286.516328,24.74934 286.177931,24.90306 285.798389,25.00386 C285.418008,25.10466 285.02755,25.15422 284.625336,25.15422 L280.288313,25.15422 L280.288313,16.20066 L284.500221,16.20066 Z" id="Fill-16" fill="#FFFFFF"></path>
                        <path d="M295.519618,23.298492 C295.461679,23.649612 295.327328,23.978052 295.118244,24.282972 C294.90916,24.587892 294.60855,24.843252 294.215573,25.048212 C293.822595,25.252332 293.292748,25.354812 292.624351,25.354812 C292.248168,25.354812 291.88458,25.302732 291.533588,25.198572 C291.182595,25.093572 290.86855,24.930612 290.59313,24.709692 C290.31771,24.487932 290.096031,24.204012 289.928931,23.856252 C289.761832,23.509332 289.677863,23.089332 289.677863,22.596252 L289.677863,21.818412 L291.458015,21.818412 L291.458015,22.219932 C291.458015,22.437492 291.474809,22.638252 291.508397,22.822212 C291.541985,23.006172 291.599924,23.162412 291.683893,23.292612 C291.767023,23.421972 291.882061,23.524452 292.028168,23.599212 C292.175115,23.674812 292.364885,23.712612 292.598321,23.712612 C292.857786,23.712612 293.057634,23.666412 293.200382,23.574852 C293.34229,23.482452 293.444733,23.363172 293.50771,23.217012 C293.570687,23.070852 293.608473,22.912092 293.620229,22.739892 C293.632824,22.569372 293.639542,22.403892 293.639542,22.245132 L293.639542,16.200492 L295.606947,16.200492 L295.606947,22.333332 C295.606947,22.625652 295.577557,22.947372 295.519618,23.298492" id="Fill-18" fill="#FFFFFF"></path>
                        <polygon id="Fill-20" fill="#FFFFFF" points="305.285183 16.200324 305.285183 17.855964 300.559382 17.855964 300.559382 19.774524 304.897244 19.774524 304.897244 21.304164 300.559382 21.304164 300.559382 23.499084 305.385947 23.499084 305.385947 25.154724 298.591137 25.154724 298.591137 16.200324"></polygon>
                        <polygon id="Fill-22" fill="#FFFFFF" points="307.266359 17.855712 307.266359 16.200072 314.599412 16.200072 314.599412 17.855712 311.916588 17.855712 311.916588 25.154472 309.948344 25.154472 309.948344 17.855712"></polygon>
                        <path d="M318.592412,21.812532 C318.67974,22.167852 318.819969,22.487892 319.01226,22.771812 C319.20455,23.055732 319.454779,23.284212 319.764626,23.455572 C320.073634,23.626932 320.449817,23.712612 320.892336,23.712612 C321.335695,23.712612 321.711878,23.626932 322.020885,23.455572 C322.329893,23.284212 322.580122,23.055732 322.773252,22.771812 C322.964702,22.487892 323.104931,22.167852 323.193099,21.812532 C323.280427,21.457212 323.324931,21.091812 323.324931,20.714652 C323.324931,20.322372 323.280427,19.941852 323.193099,19.573932 C323.104931,19.206012 322.964702,18.877572 322.773252,18.589452 C322.580122,18.301332 322.329893,18.071172 322.020885,17.899812 C321.711878,17.728452 321.335695,17.642772 320.892336,17.642772 C320.449817,17.642772 320.073634,17.728452 319.764626,17.899812 C319.454779,18.071172 319.20455,18.301332 319.01226,18.589452 C318.819969,18.877572 318.67974,19.206012 318.592412,19.573932 C318.505084,19.941852 318.46058,20.322372 318.46058,20.714652 C318.46058,21.091812 318.505084,21.457212 318.592412,21.812532 M316.792947,18.853212 C316.993634,18.280332 317.281649,17.780532 317.658672,17.353812 C318.034015,16.927932 318.495847,16.593612 319.043328,16.350852 C319.589969,16.108092 320.207145,15.987132 320.892336,15.987132 C321.585924,15.987132 322.204779,16.108092 322.747221,16.350852 C323.291344,16.593612 323.750656,16.927932 324.12684,17.353812 C324.503023,17.780532 324.791038,18.280332 324.991725,18.853212 C325.192412,19.425252 325.292336,20.046012 325.292336,20.714652 C325.292336,21.367332 325.192412,21.975492 324.991725,22.539972 C324.791038,23.104452 324.503023,23.595852 324.12684,24.013332 C323.750656,24.431652 323.291344,24.759252 322.747221,24.997812 C322.204779,25.236372 321.585924,25.354812 320.892336,25.354812 C320.207145,25.354812 319.589969,25.236372 319.043328,24.997812 C318.495847,24.759252 318.034015,24.431652 317.658672,24.013332 C317.281649,23.595852 316.993634,23.104452 316.792947,22.539972 C316.59226,21.975492 316.492336,21.367332 316.492336,20.714652 C316.492336,20.046012 316.59226,19.425252 316.792947,18.853212" id="Fill-24" fill="#FFFFFF"></path>
                        <path d="M247.067473,38.6736 C247.259763,38.6736 247.443656,38.65512 247.619153,38.61732 C247.794649,38.57952 247.949153,38.51652 248.083504,38.42916 C248.217015,38.34096 248.322817,38.22168 248.402588,38.07132 C248.482359,37.92096 248.521824,37.7286 248.521824,37.49508 C248.521824,37.03476 248.392511,36.70716 248.133885,36.5106 C247.87442,36.31404 247.531824,36.21576 247.10526,36.21576 L244.961519,36.21576 L244.961519,38.6736 L247.067473,38.6736 Z M246.954954,34.87428 C247.305947,34.87428 247.593962,34.79028 247.81984,34.62312 C248.045718,34.45596 248.158237,34.1838 248.158237,33.80832 C248.158237,33.59832 248.12045,33.42696 248.045718,33.2934 C247.970145,33.15984 247.870221,33.05568 247.745107,32.98008 C247.619153,32.90448 247.474725,32.8524 247.311824,32.823 C247.149763,32.7936 246.980145,32.77932 246.804649,32.77932 L244.961519,32.77932 L244.961519,34.87428 L246.954954,34.87428 Z M247.205183,31.24968 C247.631748,31.24968 248.020527,31.28748 248.371519,31.36224 C248.722511,31.43784 249.023122,31.56132 249.274191,31.73184 C249.52526,31.9032 249.719229,32.13168 249.856939,32.4156 C249.994649,32.70036 250.063504,33.05148 250.063504,33.46896 C250.063504,33.92088 249.961061,34.2972 249.757015,34.59792 C249.55213,34.89864 249.249,35.1456 248.847626,35.33796 C249.399305,35.49672 249.811595,35.77476 250.082817,36.17124 C250.354038,36.56856 250.490069,37.04736 250.490069,37.60764 C250.490069,38.05956 250.40274,38.45016 250.227244,38.78028 C250.051748,39.1104 249.814954,39.38004 249.518542,39.5892 C249.22129,39.79836 248.882893,39.95208 248.503351,40.05288 C248.122969,40.15368 247.732511,40.20324 247.330298,40.20324 L242.993275,40.20324 L242.993275,31.24968 L247.205183,31.24968 Z" id="Fill-26" fill="#FFFFFF"></path>
                        <path d="M257.19629,35.300076 C257.648046,35.300076 257.986443,35.199276 258.212321,34.999356 C258.438198,34.798596 258.550718,34.472676 258.550718,34.020756 C258.550718,33.586476 258.438198,33.270636 258.212321,33.074076 C257.986443,32.877516 257.648046,32.779236 257.19629,32.779236 L255.040794,32.779236 L255.040794,35.300076 L257.19629,35.300076 Z M257.899115,31.249596 C258.299649,31.249596 258.661557,31.314276 258.98316,31.443636 C259.304763,31.572996 259.581023,31.751076 259.81026,31.977036 C260.040336,32.202156 260.215832,32.464236 260.336748,32.760756 C260.458504,33.057276 260.518962,33.377316 260.518962,33.720036 C260.518962,34.246716 260.408122,34.702836 260.187282,35.086716 C259.964763,35.471436 259.603695,35.763756 259.102397,35.965356 L259.102397,35.989716 C259.345069,36.056916 259.544916,36.158556 259.703618,36.297156 C259.862321,36.434916 259.992473,36.597876 260.092397,36.786036 C260.192321,36.974196 260.265374,37.180836 260.311557,37.406796 C260.35774,37.632756 260.389649,37.857876 260.405603,38.083836 C260.414,38.226636 260.422397,38.393796 260.431634,38.586156 C260.439191,38.778516 260.454305,38.975076 260.474458,39.174996 C260.49629,39.375756 260.529038,39.566436 260.574382,39.745356 C260.620565,39.925956 260.68942,40.077996 260.782626,40.203156 L258.814382,40.203156 C258.705221,39.919236 258.638885,39.580716 258.612855,39.187596 C258.587664,38.795316 258.550718,38.418156 258.500336,38.059476 C258.434,37.590756 258.292092,37.248036 258.074611,37.030476 C257.85629,36.813756 257.501099,36.704556 257.008198,36.704556 L255.040794,36.704556 L255.040794,40.203156 L253.07255,40.203156 L253.07255,31.249596 L257.899115,31.249596 Z" id="Fill-28" fill="#FFFFFF"></path>
                        <path d="M267.952359,36.742188 L266.823809,33.456948 L266.798618,33.456948 L265.633122,36.742188 L267.952359,36.742188 Z M267.839,31.249428 L271.186863,40.203828 L269.143046,40.203828 L268.466252,38.209668 L265.119229,38.209668 L264.417244,40.203828 L262.436405,40.203828 L265.821214,31.249428 L267.839,31.249428 Z" id="Fill-30" fill="#FFFFFF"></path>
                        <path d="M274.721641,37.996476 C274.830802,38.205636 274.975229,38.374476 275.154924,38.503836 C275.333779,38.634036 275.544542,38.729796 275.788053,38.792796 C276.029885,38.854956 276.280115,38.886876 276.53958,38.886876 C276.715076,38.886876 276.903168,38.871756 277.103855,38.843196 C277.304542,38.813796 277.492634,38.757516 277.66813,38.673516 C277.843626,38.590356 277.989733,38.475276 278.10645,38.329116 C278.224008,38.182956 278.281947,37.996476 278.281947,37.770516 C278.281947,37.527756 278.204695,37.331196 278.050191,37.180836 C277.895687,37.030476 277.693321,36.905316 277.442252,36.805356 C277.191183,36.704556 276.907366,36.616356 276.589962,36.541596 C276.272557,36.466836 275.950954,36.382836 275.624313,36.291276 C275.290115,36.207276 274.964313,36.104796 274.646908,35.983836 C274.328664,35.862036 274.044847,35.705796 273.794618,35.513436 C273.54355,35.321076 273.340344,35.080836 273.186679,34.792716 C273.031336,34.503756 272.954924,34.155156 272.954924,33.745236 C272.954924,33.285756 273.052328,32.885916 273.248817,32.547396 C273.444466,32.208876 273.702252,31.926636 274.019656,31.700676 C274.337061,31.475556 274.69729,31.308396 275.097824,31.199196 C275.499198,31.090836 275.899733,31.036236 276.301947,31.036236 C276.768817,31.036236 277.218893,31.088316 277.648817,31.193316 C278.07958,31.297476 278.461641,31.467156 278.796679,31.700676 C279.130038,31.935036 279.395382,32.234076 279.59271,32.597796 C279.788359,32.961516 279.886603,33.402516 279.886603,33.920796 L277.981336,33.920796 C277.964542,33.653676 277.908282,33.431076 277.812557,33.255516 C277.715153,33.079956 277.588359,32.942196 277.429656,32.842236 C277.270954,32.742276 277.08874,32.670876 276.883855,32.628876 C276.679809,32.587716 276.455611,32.566716 276.213779,32.566716 C276.055076,32.566716 275.895534,32.583516 275.737672,32.616276 C275.578969,32.649876 275.434542,32.708676 275.304389,32.791836 C275.175076,32.875836 275.068435,32.979996 274.984466,33.105156 C274.901336,33.231156 274.860191,33.389916 274.860191,33.582276 C274.860191,33.757836 274.892939,33.899796 274.960115,34.008156 C275.02645,34.117356 275.159122,34.217316 275.354771,34.309716 C275.55126,34.401276 275.823321,34.493676 276.170115,34.585236 C276.516908,34.677636 276.970344,34.794396 277.53042,34.936356 C277.697519,34.969956 277.928435,35.030436 278.225687,35.118636 C278.522099,35.205996 278.816832,35.346276 279.109885,35.538636 C279.402099,35.730996 279.654847,35.988036 279.86813,36.309756 C280.081412,36.631476 280.188053,37.043076 280.188053,37.544556 C280.188053,37.954476 280.108282,38.334996 279.94958,38.686116 C279.790878,39.037236 279.554924,39.340476 279.241718,39.594996 C278.927672,39.850356 278.538893,40.048596 278.075382,40.190556 C277.611031,40.333356 277.074466,40.403916 276.464008,40.403916 C275.971107,40.403916 275.493321,40.343436 275.028969,40.222476 C274.564618,40.101516 274.155687,39.910836 273.800496,39.652116 C273.444466,39.392556 273.163168,39.062436 272.954924,38.660916 C272.745,38.259396 272.645076,37.783116 272.653473,37.231236 L274.55958,37.231236 C274.55958,37.531956 274.613321,37.787316 274.721641,37.996476" id="Fill-32" fill="#FFFFFF"></path>
                        <mask id="mask-2" fill="white">
                            <use xlink:href="#path-1"></use>
                        </mask>
                        <g id="Clip-35"></g>
                        <polygon id="Fill-34" fill="#FFFFFF" mask="url(#mask-2)" points="282.606794 40.20324 284.575038 40.20324 284.575038 31.24884 282.606794 31.24884"></polygon>
                        <polygon id="Fill-36" fill="#FFFFFF" mask="url(#mask-2)" points="289.526969 31.249428 289.526969 38.548188 293.889183 38.548188 293.889183 40.203828 287.558725 40.203828 287.558725 31.249428"></polygon>
                        <polygon id="Fill-37" fill="#FFFFFF" mask="url(#mask-2)" points="302.939916 31.249428 302.939916 32.905068 298.214115 32.905068 298.214115 34.823628 302.551977 34.823628 302.551977 36.353268 298.214115 36.353268 298.214115 38.548188 303.040679 38.548188 303.040679 40.203828 296.24587 40.203828 296.24587 31.249428"></polygon>
                        <polygon id="Fill-38" fill="#FFFFFF" mask="url(#mask-2)" points="305.622824 40.20324 307.591069 40.20324 307.591069 31.24884 305.622824 31.24884"></polygon>
                        <path d="M314.698916,35.300076 C315.150672,35.300076 315.489069,35.199276 315.714947,34.999356 C315.940824,34.798596 316.053344,34.472676 316.053344,34.020756 C316.053344,33.586476 315.940824,33.270636 315.714947,33.074076 C315.489069,32.877516 315.150672,32.779236 314.698916,32.779236 L312.54342,32.779236 L312.54342,35.300076 L314.698916,35.300076 Z M315.40174,31.249596 C315.802275,31.249596 316.164183,31.314276 316.485786,31.443636 C316.807389,31.572996 317.083649,31.751076 317.312885,31.977036 C317.542962,32.202156 317.718458,32.464236 317.839374,32.760756 C317.96113,33.057276 318.021588,33.377316 318.021588,33.720036 C318.021588,34.246716 317.910748,34.702836 317.689908,35.086716 C317.467389,35.471436 317.106321,35.763756 316.605023,35.965356 L316.605023,35.989716 C316.847695,36.056916 317.047542,36.158556 317.206244,36.297156 C317.364947,36.434916 317.495099,36.597876 317.595023,36.786036 C317.694947,36.974196 317.768,37.180836 317.814183,37.406796 C317.860366,37.632756 317.892275,37.857876 317.908229,38.083836 C317.916626,38.226636 317.925023,38.393796 317.93426,38.586156 C317.941817,38.778516 317.956931,38.975076 317.977084,39.174996 C317.998916,39.375756 318.031664,39.566436 318.077008,39.745356 C318.123191,39.925956 318.192046,40.077996 318.285252,40.203156 L316.317008,40.203156 C316.207847,39.919236 316.141511,39.580716 316.115481,39.187596 C316.09029,38.795316 316.053344,38.418156 316.002962,38.059476 C315.936626,37.590756 315.794718,37.248036 315.577237,37.030476 C315.358916,36.813756 315.003725,36.704556 314.510824,36.704556 L312.54342,36.704556 L312.54342,40.203156 L310.575176,40.203156 L310.575176,31.249596 L315.40174,31.249596 Z" id="Fill-39" fill="#FFFFFF" mask="url(#mask-2)"></path>
                        <path d="M322.590786,36.861552 C322.678115,37.216872 322.818344,37.536912 323.010634,37.820832 C323.202924,38.104752 323.453153,38.333232 323.763,38.504592 C324.072008,38.675952 324.448191,38.761632 324.89071,38.761632 C325.334069,38.761632 325.710252,38.675952 326.01926,38.504592 C326.328267,38.333232 326.578496,38.104752 326.771626,37.820832 C326.963076,37.536912 327.103305,37.216872 327.191473,36.861552 C327.278802,36.506232 327.323305,36.140832 327.323305,35.763672 C327.323305,35.371392 327.278802,34.990872 327.191473,34.622952 C327.103305,34.255032 326.963076,33.926592 326.771626,33.638472 C326.578496,33.350352 326.328267,33.120192 326.01926,32.948832 C325.710252,32.777472 325.334069,32.691792 324.89071,32.691792 C324.448191,32.691792 324.072008,32.777472 323.763,32.948832 C323.453153,33.120192 323.202924,33.350352 323.010634,33.638472 C322.818344,33.926592 322.678115,34.255032 322.590786,34.622952 C322.503458,34.990872 322.458954,35.371392 322.458954,35.763672 C322.458954,36.140832 322.503458,36.506232 322.590786,36.861552 M320.791321,33.902232 C320.992008,33.329352 321.280023,32.829552 321.657046,32.402832 C322.032389,31.976952 322.494221,31.642632 323.041702,31.399872 C323.588344,31.157112 324.205519,31.036152 324.89071,31.036152 C325.584298,31.036152 326.203153,31.157112 326.745595,31.399872 C327.289718,31.642632 327.749031,31.976952 328.125214,32.402832 C328.501397,32.829552 328.789412,33.329352 328.990099,33.902232 C329.190786,34.474272 329.29071,35.095032 329.29071,35.763672 C329.29071,36.416352 329.190786,37.024512 328.990099,37.588992 C328.789412,38.153472 328.501397,38.644872 328.125214,39.062352 C327.749031,39.480672 327.289718,39.808272 326.745595,40.046832 C326.203153,40.285392 325.584298,40.403832 324.89071,40.403832 C324.205519,40.403832 323.588344,40.285392 323.041702,40.046832 C322.494221,39.808272 322.032389,39.480672 321.657046,39.062352 C321.280023,38.644872 320.992008,38.153472 320.791321,37.588992 C320.590634,37.024512 320.49071,36.416352 320.49071,35.763672 C320.49071,35.095032 320.590634,34.474272 320.791321,33.902232" id="Fill-40" fill="#FFFFFF" mask="url(#mask-2)"></path>
                        <path d="M13.1768244,25.577748 L23.0096489,25.577748 L18.1595725,10.464468 L13.1768244,25.577748 Z M13.7058321,1.683108 L22.7829313,1.683108 L36.3675115,40.091268 L27.6674351,40.091268 L25.1340763,32.196108 L10.994458,32.196108 L8.39224427,40.091268 L0.000335877862,40.091268 L13.7058321,1.683108 Z" id="Fill-41" fill="#FFFFFF" mask="url(#mask-2)"></path>
                        <path d="M68.4556031,5.695872 C71.5481985,2.534112 75.4821679,0.953232 80.2583511,0.953232 C86.6484275,0.953232 91.3213282,3.073392 94.2762137,7.311192 C95.9085802,9.691752 96.7843817,12.079872 96.904458,14.477232 L88.8820153,14.477232 C88.3714809,12.635952 87.7165191,11.245752 86.9171298,10.308312 C85.4879695,8.640072 83.3702595,7.806792 80.5631603,7.806792 C77.7056794,7.806792 75.4510992,8.983632 73.8010992,11.337312 C72.1510992,13.691832 71.3256794,17.022432 71.3256794,21.329952 C71.3256794,25.639152 72.1964427,28.865592 73.9379695,31.010952 C75.6786565,33.156312 77.8912519,34.228992 80.574916,34.228992 C83.3265954,34.228992 85.4241527,33.308352 86.8684275,31.467072 C87.6669771,30.475872 88.3294962,28.990752 88.8559847,27.010872 L96.8272061,27.010872 C96.1394962,31.197432 94.382855,34.602792 91.5572824,37.225272 C88.7308702,39.848592 85.1101069,41.159832 80.6958321,41.159832 C75.2319389,41.159832 70.9377405,39.388272 67.8107176,35.844312 C64.6845344,32.283552 63.1210229,27.401472 63.1210229,21.200592 C63.1210229,14.494872 64.8994962,9.327192 68.4556031,5.695872" id="Fill-42" fill="#FFFFFF" mask="url(#mask-2)"></path>
                        <path d="M119.097672,25.577748 L128.930496,25.577748 L124.08042,10.464468 L119.097672,25.577748 Z M119.626679,1.683108 L128.703779,1.683108 L142.288359,40.091268 L133.588282,40.091268 L131.054924,32.196108 L116.915305,32.196108 L114.313092,40.091268 L105.921183,40.091268 L119.626679,1.683108 Z" id="Fill-43" fill="#FFFFFF" mask="url(#mask-2)"></path>
                        <path d="M158.288992,28.235592 C158.537542,29.990352 159.024565,31.301592 159.75174,32.170152 C161.081817,33.751032 163.359908,34.541472 166.586855,34.541472 C168.519832,34.541472 170.089221,34.333152 171.294183,33.915672 C173.581511,33.117672 174.725176,31.631712 174.725176,29.460312 C174.725176,28.192752 174.165099,27.210792 173.044947,26.516112 C171.923954,25.838232 170.14716,25.239312 167.713725,24.717672 L163.557237,23.806272 C159.472122,22.902432 156.665023,21.921312 155.137618,20.861232 C152.549679,19.089672 151.25655,16.318512 151.25655,12.549432 C151.25655,9.109632 152.52113,6.251952 155.052809,3.976392 C157.584489,1.700832 161.302656,0.562632 166.207313,0.562632 C170.303344,0.562632 173.796473,1.635312 176.688382,3.780672 C179.58029,5.926032 181.096779,9.039912 181.237008,13.122312 L173.526931,13.122312 C173.385023,10.812312 172.352198,9.170952 170.429298,8.197392 C169.147924,7.554792 167.554183,7.233072 165.649756,7.233072 C163.531206,7.233072 161.840061,7.650552 160.575481,8.483832 C159.31174,9.317952 158.67945,10.482192 158.67945,11.975712 C158.67945,13.348272 159.303344,14.373072 160.54945,15.050952 C161.350519,15.502032 163.050061,16.032072 165.650595,16.640232 L172.388305,18.229512 C175.341511,18.925032 177.554107,19.854072 179.028611,21.017472 C181.316779,22.824312 182.461282,25.438392 182.461282,28.861392 C182.461282,32.370072 181.105176,35.284032 178.393802,37.603272 C175.681588,39.922512 171.850901,41.081712 166.90174,41.081712 C161.846779,41.081712 157.870824,39.940152 154.974718,37.655352 C152.078611,35.371392 150.630977,32.231472 150.630977,28.235592 L158.288992,28.235592 Z" id="Fill-44" fill="#FFFFFF" mask="url(#mask-2)"></path>
                        <path d="M203.87274,25.577748 L213.705565,25.577748 L208.855489,10.464468 L203.87274,25.577748 Z M204.401748,1.683108 L213.478847,1.683108 L227.063427,40.091268 L218.363351,40.091268 L215.829992,32.196108 L201.690374,32.196108 L199.08816,40.091268 L190.696252,40.091268 L204.401748,1.683108 Z" id="Fill-45" fill="#FFFFFF" mask="url(#mask-2)"></path>
                    </g>
                </g>
            </g>
        </g>
    </g>
</svg>