<svg width="208" height="30" viewBox="0 0 208 30" fill="none" xmlns="http://www.w3.org/2000/svg">
<path d="M0.00145336 2.73085C-0.00937527 2.43415 0.0404364 2.13961 0.146557 1.86456C0.252678 1.58951 0.412941 1.34262 0.61652 1.13688C1.08865 0.725389 1.68206 0.502319 2.29496 0.502319C2.90786 0.502319 3.50127 0.727555 3.9734 1.13688C4.17481 1.34695 4.33507 1.59601 4.44336 1.87106C4.55165 2.14611 4.60795 2.44064 4.60795 2.73951C4.60795 3.03839 4.55165 3.33292 4.44336 3.60797C4.33507 3.88302 4.17481 4.13208 3.9734 4.34215C3.50343 4.75364 2.91219 4.97671 2.29929 4.97671C1.68639 4.97671 1.09515 4.75147 0.625183 4.34215C0.421604 4.13424 0.259175 3.88302 0.153054 3.60581C0.0469336 3.32643 -0.00504382 3.02972 0.00145336 2.73085ZM4.35456 23.0454H0.239683V6.89988H4.35456V23.0454Z" fill="white"/>
<path d="M7.03143 14.8958C7.03143 12.3922 7.6335 10.3803 8.83548 8.85561C9.39857 8.11493 10.1349 7.52152 10.9796 7.12303C11.8242 6.72454 12.7533 6.53395 13.6867 6.5686C14.4837 6.52745 15.2807 6.67256 16.0127 6.99092C16.7447 7.30928 17.3901 7.7944 17.9012 8.40297L18.0766 6.86531H22.0594V22.6188C22.0919 23.9291 21.7497 25.2198 21.0762 26.346C20.4156 27.4029 19.454 28.2432 18.3149 28.7608C17.0046 29.3369 15.5839 29.6184 14.1523 29.5859C12.9439 29.5859 11.7484 29.3412 10.6352 28.8734C9.62597 28.4901 8.73369 27.8512 8.04932 27.0217L9.98765 24.3709C10.4771 24.947 11.0878 25.4083 11.7765 25.7245C12.4652 26.0406 13.2167 26.2009 13.9748 26.1966C14.971 26.2529 15.9499 25.9194 16.6992 25.2675C17.0349 24.9188 17.2948 24.5073 17.4616 24.0547C17.6283 23.602 17.6976 23.1213 17.6673 22.6405V21.7677C17.1692 22.3286 16.5541 22.7704 15.8611 23.0649C15.1702 23.3595 14.4209 23.4959 13.6694 23.4656C12.7446 23.4894 11.8264 23.2945 10.9925 22.8939C10.1587 22.4932 9.43539 21.9019 8.8788 21.1678C7.653 19.6301 7.04876 17.5792 7.04876 15.0756V14.8915H7.0271L7.03143 14.8958ZM11.417 15.2077C11.3499 16.4292 11.6639 17.642 12.318 18.6793C12.5844 19.08 12.9504 19.4092 13.3792 19.6301C13.8102 19.851 14.2888 19.9615 14.7739 19.9463C15.3457 19.9853 15.9152 19.8683 16.422 19.6041C16.9288 19.3421 17.3533 18.9457 17.6478 18.4584V11.5909C17.3619 11.1058 16.944 10.7073 16.4415 10.4453C15.9391 10.1832 15.3738 10.0641 14.8086 10.1031C14.3169 10.0879 13.8318 10.1984 13.3965 10.4236C12.9612 10.6488 12.593 10.9824 12.3266 11.3917C11.7224 12.2471 11.417 13.5141 11.417 15.2077Z" fill="white"/>
<path d="M29.0482 6.87399L29.1868 8.80149C29.7412 8.07814 30.4537 7.49772 31.268 7.11006C32.0823 6.72239 32.9768 6.53397 33.8756 6.56646C35.6038 6.56646 36.8924 7.09056 37.7284 8.13661C38.5644 9.18482 39.0062 10.7138 39.0322 12.7821V23.5328H34.6769V12.886C34.7419 12.1475 34.5253 11.4112 34.077 10.8286C33.8019 10.5925 33.4836 10.415 33.1392 10.3045C32.7949 10.1941 32.4354 10.1551 32.0758 10.1897C31.5171 10.1681 30.9627 10.3045 30.4775 10.5882C29.9924 10.8698 29.5918 11.2856 29.3254 11.788V23.5219H24.9701V6.88482L29.0482 6.87399Z" fill="white"/>
<path d="M41.6982 2.7307C41.6874 2.43399 41.7437 2.13946 41.8606 1.86441C41.9776 1.58936 42.153 1.34247 42.3783 1.13456C42.9002 0.725236 43.5586 0.5 44.2364 0.5C44.9143 0.5 45.5705 0.725236 46.0946 1.13456C46.5408 1.56121 46.7898 2.13729 46.7898 2.7372C46.7898 3.3371 46.5408 3.91319 46.0946 4.33983C45.5749 4.74916 44.9186 4.97439 44.2429 4.97439C43.5672 4.97439 42.911 4.74916 42.3912 4.33983C42.166 4.13192 41.9884 3.8807 41.8693 3.60349C41.7502 3.32627 41.6939 3.02957 41.7025 2.7307H41.6982ZM46.5105 23.0474H41.9646V6.89972H46.5105V23.0452V23.0474Z" fill="white"/>
<path d="M54.8116 2.92587V6.97361H57.5383V10.2005H54.8116V18.4346C54.7683 18.9003 54.8917 19.3681 55.1581 19.7471C55.3357 19.903 55.5415 20.0178 55.7645 20.0871C55.9876 20.1542 56.2215 20.1737 56.4511 20.1412C56.869 20.1434 57.2849 20.1109 57.6985 20.0416V23.379C56.8625 23.6432 55.9919 23.7753 55.1191 23.7732C52.1369 23.7732 50.6188 22.216 50.5646 19.1038V10.22H48.2451V6.99311H50.5646V2.94536H54.8138V2.92371L54.8116 2.92587Z" fill="white"/>
<path d="M67.1282 23.7667C66.041 23.8078 64.956 23.6324 63.9359 23.2491C62.918 22.8657 61.9868 22.281 61.1963 21.5295C59.6694 20.0373 58.9093 18.0557 58.9093 15.5629V15.1298C58.8789 13.5878 59.2103 12.0609 59.873 10.6705C60.4686 9.41225 61.4172 8.35537 62.604 7.62985C63.8211 6.9065 65.2159 6.53833 66.6322 6.55999C68.8933 6.55999 70.6865 7.27467 71.9837 8.70839C73.281 10.1421 73.9372 12.1671 73.9372 14.7897V16.5938H63.3966C63.4941 17.5922 63.9532 18.5191 64.6896 19.2013C65.4433 19.8619 66.42 20.2106 67.4206 20.1759C68.1851 20.2106 68.9496 20.059 69.6426 19.7363C70.3378 19.4136 70.9442 18.9263 71.412 18.3199L73.5842 20.7607C72.8999 21.7222 71.9686 22.4824 70.8901 22.961C69.7119 23.509 68.4276 23.784 67.1282 23.7645V23.7667ZM66.6063 10.1508C66.2078 10.1356 65.8114 10.2071 65.4433 10.3608C65.0751 10.5146 64.7459 10.7442 64.4752 11.0387C63.8818 11.7686 63.5201 12.6587 63.4335 13.5943H69.582V13.2391C69.6166 12.4031 69.3329 11.5823 68.785 10.9499C68.5013 10.6749 68.1634 10.4626 67.7931 10.3262C67.4227 10.1897 67.0286 10.1291 66.6344 10.1529H66.6084L66.6063 10.1508Z" fill="white"/>
<path d="M85.8076 23.0455H81.4567V0H85.8076V23.0455Z" fill="white"/>
<path d="M98.4792 23.0454C98.28 22.6556 98.1349 22.1705 98.0439 21.5901C96.9936 22.7596 95.6291 23.3465 93.9485 23.3465C92.3589 23.3465 91.04 22.8873 89.9961 21.9669C88.95 21.0465 88.4281 19.8856 88.4281 18.4866C88.4281 16.767 89.0648 15.4459 90.3404 14.5255C91.6161 13.605 93.4591 13.1394 95.8695 13.1307H97.8642V12.1995C97.8642 11.4501 97.6714 10.8481 97.2859 10.3997C96.9004 9.94928 96.294 9.72404 95.4624 9.72404C94.7325 9.72404 94.1586 9.89947 93.745 10.2503C93.3291 10.6012 93.1234 11.0798 93.1234 11.6905H88.7876C88.7876 10.7506 89.0778 9.87998 89.6582 9.08082C90.2387 8.28167 91.0595 7.65361 92.1185 7.19881C93.1775 6.744 94.3687 6.5166 95.6898 6.5166C97.6909 6.5166 99.2784 7.01905 100.454 8.02395C101.63 9.02884 102.217 10.4431 102.217 12.2623V19.2987C102.228 20.8386 102.443 22.0037 102.863 22.7942V23.0498H98.4814L98.4792 23.0454ZM94.8928 20.0307C95.5317 20.0307 96.1229 19.8878 96.6622 19.6041C97.2015 19.3182 97.6021 18.937 97.862 18.4563V15.6646H96.242C94.072 15.6646 92.9155 16.414 92.7769 17.9148L92.7617 18.1704C92.7617 18.7096 92.9523 19.1558 93.3313 19.5066C93.7125 19.8575 94.2322 20.0329 94.8928 20.0329V20.0307Z" fill="white"/>
<path d="M119.868 15.08C119.868 17.681 119.314 19.7081 118.203 21.1635C117.092 22.6189 115.541 23.3465 113.551 23.3465C111.79 23.3465 110.384 22.6708 109.334 21.3216L109.139 23.0477H105.239V0H109.574V8.26658C110.575 7.09709 111.889 6.51017 113.52 6.51017C115.5 6.51017 117.053 7.23786 118.179 8.69323C119.305 10.1486 119.866 12.1974 119.866 14.8374V15.0778L119.868 15.08ZM115.532 14.7659C115.532 13.1265 115.272 11.9288 114.753 11.173C114.233 10.4171 113.457 10.0403 112.427 10.0403C111.047 10.0403 110.096 10.6056 109.576 11.7361V18.1423C110.107 19.2815 111.066 19.8532 112.457 19.8532C113.847 19.8532 114.776 19.1623 115.218 17.7828C115.428 17.1222 115.532 16.1173 115.532 14.7659Z" fill="white"/>
<path d="M144.38 15.3594H142.376V19.3356H140.579V8.99646H144.215C145.408 8.99646 146.329 9.26501 146.978 9.79994C147.628 10.3349 147.951 11.1102 147.951 12.1238C147.951 12.8146 147.784 13.3951 147.451 13.8607C147.117 14.3285 146.651 14.6858 146.056 14.937L148.378 19.2425V19.3356H146.452L144.377 15.3594H144.38ZM142.376 13.9105H144.224C144.83 13.9105 145.302 13.7567 145.644 13.4514C145.987 13.146 146.155 12.728 146.155 12.1974C146.155 11.6668 145.997 11.2142 145.683 10.911C145.369 10.6078 144.899 10.4518 144.273 10.4432H142.376V13.9083V13.9105Z" fill="#C4C4CC"/>
<path d="M157.155 14.7205H152.908V17.9019H157.872V19.3356H151.111V8.99646H157.822V10.4453H152.908V13.2998H157.155V14.7205Z" fill="#C4C4CC"/>
<path d="M166.578 16.9295H162.572L161.734 19.3378H159.867L163.774 8.99646H165.385L169.298 19.3378H167.423L166.578 16.9295ZM163.076 15.4806H166.074L164.575 11.1903L163.076 15.4806Z" fill="#C4C4CC"/>
<path d="M179.666 15.9702C179.562 17.0725 179.155 17.9345 178.444 18.5517C177.734 19.169 176.79 19.4787 175.611 19.4787C174.789 19.4787 174.063 19.2837 173.435 18.8917C172.807 18.5019 172.324 17.9453 171.982 17.2263C171.642 16.5073 171.464 15.6713 171.449 14.7184V13.7525C171.449 12.7779 171.622 11.9181 171.967 11.1753C172.311 10.4324 172.809 9.8585 173.454 9.45568C174.1 9.05285 174.847 8.85144 175.696 8.85144C176.837 8.85144 177.756 9.16114 178.451 9.77837C179.146 10.3956 179.551 11.2706 179.666 12.4032H177.877C177.792 11.6604 177.576 11.1233 177.227 10.7941C176.878 10.4649 176.37 10.3003 175.696 10.3003C174.914 10.3003 174.314 10.5862 173.896 11.1579C173.476 11.7297 173.264 12.5657 173.253 13.6702V14.5863C173.253 15.7038 173.452 16.5571 173.853 17.1462C174.254 17.7331 174.838 18.0276 175.611 18.0276C176.318 18.0276 176.848 17.8695 177.203 17.5512C177.558 17.2328 177.784 16.7065 177.879 15.968H179.668L179.666 15.9702Z" fill="#C4C4CC"/>
<path d="M189.992 10.4453H186.767V19.3378H184.985V10.4453H181.788V8.99646H189.992V10.4453Z" fill="#C4C4CC"/>
<path d="M195.502 8.99646H197.29V16.2473C197.29 17.237 196.981 18.0232 196.363 18.6058C195.746 19.1884 194.93 19.4786 193.916 19.4786C192.838 19.4786 192.004 19.2057 191.417 18.6621C190.83 18.1185 190.536 17.3605 190.536 16.3903H192.324C192.324 16.9403 192.461 17.3518 192.734 17.629C193.007 17.9063 193.401 18.0449 193.916 18.0449C194.399 18.0449 194.785 17.8846 195.071 17.5662C195.356 17.2457 195.499 16.8061 195.499 16.2408V8.99646H195.502Z" fill="#C4C4CC"/>
<path d="M206.202 16.674C206.202 16.2192 206.042 15.8683 205.724 15.6236C205.405 15.3789 204.827 15.1298 203.993 14.8786C203.16 14.6274 202.497 14.348 202.005 14.0405C201.063 13.4492 200.591 12.6761 200.591 11.7253C200.591 10.8915 200.931 10.205 201.611 9.6657C202.291 9.12643 203.173 8.85571 204.258 8.85571C204.977 8.85571 205.618 8.98782 206.183 9.25421C206.746 9.51843 207.19 9.89743 207.511 10.3869C207.833 10.8763 207.994 11.4199 207.994 12.0177H206.205C206.205 11.4784 206.036 11.0561 205.698 10.7507C205.36 10.4454 204.875 10.2916 204.245 10.2916C203.658 10.2916 203.201 10.4172 202.878 10.6684C202.553 10.9197 202.391 11.2705 202.391 11.7188C202.391 12.0978 202.566 12.414 202.917 12.6674C203.268 12.9208 203.844 13.1677 204.65 13.4059C205.455 13.6441 206.101 13.917 206.588 14.2224C207.075 14.5278 207.433 14.8786 207.66 15.2728C207.887 15.6691 208 16.1304 208 16.661C208 17.523 207.671 18.2073 207.01 18.7163C206.35 19.2252 205.453 19.4808 204.323 19.4808C203.573 19.4808 202.887 19.3422 202.259 19.0649C201.631 18.7877 201.143 18.4066 200.795 17.9171C200.446 17.4298 200.273 16.8602 200.273 16.2127H202.07C202.07 16.7996 202.265 17.2544 202.653 17.5771C203.041 17.8998 203.597 18.0601 204.323 18.0601C204.949 18.0601 205.416 17.9344 205.733 17.681C206.047 17.4277 206.205 17.092 206.205 16.6762L206.202 16.674Z" fill="#C4C4CC"/>
<path d="M131.883 29.09H127.532V0.500244H131.883V29.09Z" fill="#00B37E"/>
</svg>
